<svg width="32" height="32" viewBox="0 0 32 32" fill="none" xmlns="http://www.w3.org/2000/svg">
<circle cx="16" cy="16" r="16" fill="#0077FF"/>
<path d="M22.7148 15.5891C22.9765 15.2509 23.1842 14.9795 23.3376 14.7747C24.4424 13.3058 24.9213 12.3674 24.7746 11.9583L24.717 11.8625C24.6787 11.8049 24.5795 11.7521 24.42 11.7043C24.2603 11.6564 24.0559 11.6488 23.807 11.6804L21.048 11.6998C20.9841 11.6935 20.9198 11.695 20.8563 11.7043C20.7924 11.714 20.751 11.7237 20.7317 11.733C20.7124 11.7428 20.6966 11.7506 20.6839 11.7569L20.6456 11.7857C20.6137 11.8047 20.5786 11.8384 20.5403 11.8864C20.502 11.9344 20.4698 11.9901 20.4445 12.0541C20.1443 12.8269 19.8027 13.5455 19.4194 14.2097C19.1831 14.6057 18.9658 14.9492 18.7681 15.2394C18.5701 15.5303 18.404 15.7442 18.2699 15.8812C18.1358 16.0185 18.0143 16.1289 17.9059 16.2117C17.7971 16.295 17.7142 16.3299 17.6569 16.3172C17.6024 16.3054 17.5481 16.2925 17.494 16.2787C17.4045 16.2214 17.3326 16.1433 17.2784 16.0441C17.2241 15.9454 17.1875 15.8208 17.1682 15.6706C17.1492 15.5206 17.1378 15.3911 17.1348 15.2824C17.1314 15.1739 17.1331 15.0208 17.1397 14.8225C17.146 14.6245 17.1492 14.4906 17.1492 14.4202C17.1492 14.1778 17.154 13.9142 17.1636 13.6299C17.1731 13.3458 17.1812 13.1205 17.1875 12.9545C17.1939 12.7886 17.197 12.6128 17.197 12.4275C17.197 12.2426 17.1858 12.0971 17.1633 11.9916C17.1407 11.8861 17.1071 11.7834 17.0629 11.685C17.018 11.5862 16.9526 11.5094 16.8663 11.4553C16.7801 11.4009 16.6732 11.358 16.5455 11.3258C16.2068 11.249 15.7757 11.208 15.2521 11.2013C14.0642 11.189 13.3009 11.2656 12.9625 11.4314C12.8284 11.5018 12.7069 11.5974 12.5984 11.7189C12.4834 11.8596 12.4675 11.9363 12.5506 11.9486C12.9339 12.0061 13.2052 12.1436 13.3648 12.3607L13.4224 12.4755C13.467 12.5589 13.5117 12.7057 13.5565 12.9164C13.6012 13.1271 13.6299 13.3602 13.6428 13.6157C13.6747 14.0819 13.6747 14.4809 13.6428 14.8132C13.6109 15.1455 13.5806 15.404 13.5519 15.5889C13.5231 15.7742 13.4799 15.9242 13.4226 16.0391C13.365 16.1543 13.3268 16.2246 13.3075 16.2501C13.2883 16.2755 13.2724 16.2916 13.2597 16.298C13.1772 16.3297 13.0895 16.3459 13.001 16.3458C12.9116 16.3458 12.803 16.3009 12.6753 16.2114C12.5475 16.1224 12.4149 15.9993 12.2778 15.8427C12.1403 15.6864 11.9856 15.4675 11.813 15.1864C11.6406 14.9057 11.4616 14.5733 11.2766 14.1902L11.1234 13.9123C11.0276 13.7337 10.8966 13.4733 10.7306 13.1317C10.5645 12.7901 10.4175 12.4597 10.2899 12.14C10.2388 12.0061 10.1622 11.904 10.06 11.8335L10.0122 11.8048C9.98028 11.7794 9.92909 11.7521 9.85885 11.7235C9.78792 11.6946 9.71399 11.6737 9.63843 11.6611L7.0135 11.6802C6.74528 11.6802 6.56336 11.7411 6.46755 11.8625L6.42925 11.9198C6.4099 11.952 6.40039 12.0032 6.40039 12.0732C6.40039 12.1436 6.41964 12.2297 6.45794 12.3317C6.84123 13.2324 7.25797 14.101 7.70811 14.9374C8.15848 15.7742 8.54962 16.4482 8.88171 16.959C9.21381 17.4703 9.55226 17.9522 9.89729 18.4057C10.2423 18.8592 10.4705 19.1496 10.5822 19.2772C10.6939 19.4052 10.7817 19.501 10.8456 19.5647L11.0851 19.7948C11.2382 19.948 11.4635 20.1316 11.7605 20.3457C12.0575 20.5597 12.3862 20.7704 12.7473 20.9778C13.108 21.1855 13.5281 21.3545 14.007 21.4856C14.4859 21.6168 14.9521 21.6694 15.4057 21.6436H16.5074C16.731 21.6246 16.9001 21.5546 17.0151 21.4329L17.0533 21.3851C17.0787 21.347 17.1028 21.2878 17.1252 21.2081C17.1474 21.1283 17.1589 21.0403 17.1589 20.9447C17.1523 20.6702 17.1733 20.4222 17.2211 20.2022C17.2689 19.9818 17.3232 19.816 17.384 19.7039C17.4447 19.5924 17.5132 19.498 17.59 19.4212C17.6666 19.3444 17.7207 19.2985 17.7529 19.2825C17.7848 19.2668 17.8105 19.2556 17.8295 19.2488C17.9826 19.1978 18.1631 19.2473 18.3708 19.3973C18.5783 19.5477 18.7732 19.7326 18.9553 19.953C19.1372 20.1734 19.3559 20.4207 19.6115 20.6955C19.8668 20.97 20.0903 21.1744 20.282 21.3085L20.4737 21.4238C20.6014 21.5002 20.7673 21.5704 20.9718 21.6345C21.1762 21.6982 21.3551 21.7143 21.5083 21.6823L23.9608 21.6438C24.2034 21.6438 24.3919 21.6041 24.5261 21.5241C24.6601 21.4448 24.7399 21.3563 24.7655 21.2607C24.7909 21.1649 24.7926 21.0568 24.7704 20.9352C24.748 20.8139 24.7256 20.7293 24.7034 20.6815C24.681 20.6337 24.6602 20.5935 24.6409 20.5618C24.3215 19.9871 23.7116 19.2811 22.8111 18.4445L22.7919 18.4255L22.7824 18.4158L22.7729 18.4065H22.7633C22.3544 18.0168 22.0958 17.7549 21.9873 17.6206C21.7894 17.3655 21.7445 17.1068 21.8532 16.8449C21.9294 16.6464 22.2167 16.228 22.7148 15.5891Z" fill="white"/>
</svg>
