<svg width="32" height="32" viewBox="0 0 32 32" fill="none" xmlns="http://www.w3.org/2000/svg">
<circle cx="16" cy="16" r="16" fill="#00DB23"/>
<path d="M16.2599 6C11.4287 6 7.51596 9.96229 7.51596 14.8548C7.51596 16.826 8.15309 18.6469 9.22801 20.1194L7 25L7.58241 24.7269L12.0697 22.629C13.3127 23.3177 14.7394 23.7096 16.256 23.7096C21.0834 23.7096 25 19.7473 25 14.8548C25.0039 9.96229 21.0873 6 16.2599 6ZM20.9231 18.635C20.8723 18.8804 20.7668 19.114 20.6143 19.3198C20.4267 19.5731 20.1844 19.7631 19.9068 19.8819C19.6293 20.0006 19.3244 20.0481 19.0195 20.0085C18.2026 19.9096 17.413 19.6444 16.7055 19.2169C15.8886 18.726 14.7902 17.9621 13.9616 16.8696C13.0782 15.8206 12.5974 14.5935 12.2925 13.6792C12.0306 12.8915 11.9368 12.0523 12.0111 11.225C12.0384 10.9123 12.1479 10.6194 12.3199 10.37C12.4919 10.1206 12.7303 9.91875 13.0117 9.78812C13.2423 9.67729 13.4925 9.62583 13.7388 9.62583C14.0906 9.62583 14.5205 9.62188 14.8176 9.83562C15.2788 10.1642 15.4743 10.8133 15.4743 11.3833C15.4743 11.4348 15.4704 11.4902 15.4664 11.5417C15.4391 11.8544 15.4117 12.1275 15.2358 12.3769C15.0638 12.6263 14.7472 12.844 14.4658 12.9785C14.6808 14.1502 15.0521 15.021 15.5642 15.5831C15.7831 15.8919 16.0801 16.1848 16.4593 16.4579C16.8384 16.731 17.2958 16.9804 17.8391 17.21C18.0267 16.9606 18.3042 16.6915 18.5818 16.5727C18.8554 16.454 19.129 16.4817 19.4339 16.5212C19.4847 16.5292 19.5394 16.5371 19.5902 16.549C20.1375 16.6677 20.7238 16.9963 20.9466 17.5227C21.0873 17.8631 20.9974 18.2867 20.9231 18.635Z" fill="white"/>
</svg>
