<svg width="156" height="21" viewBox="0 0 156 21" fill="none" xmlns="http://www.w3.org/2000/svg">
<path fill-rule="evenodd" clip-rule="evenodd" d="M19.7989 0C19.884 0 19.969 0 20.0541 0C20.0562 0.00846945 20.0583 0.00846945 20.0604 0C20.0624 0 20.0645 0 20.0666 0C20.7617 0.0229817 21.4527 0.0441554 22.1396 0.0635209C22.1499 0.15218 22.153 0.241109 22.1489 0.330308C22.1485 0.397892 22.1225 0.451884 22.0711 0.492287C22.0586 0.496522 22.0462 0.500756 22.0337 0.504991C21.9683 0.509385 21.903 0.508327 21.8376 0.501815C21.7051 0.50164 21.6117 0.563043 21.5575 0.686025C21.522 0.77169 21.4981 0.860619 21.4859 0.952813C21.6907 1.01774 21.8941 1.08656 22.096 1.15926C21.8302 1.34566 21.5396 1.47693 21.2245 1.55309C20.7599 1.64673 20.3895 1.49957 20.1133 1.11162C20.0467 1.00952 19.9865 0.903654 19.9327 0.794011C19.8656 0.777978 19.7981 0.763152 19.7304 0.749546C19.44 0.766703 19.1494 0.783644 18.8589 0.800363C18.8477 0.799874 18.8373 0.796698 18.8278 0.790835C18.7435 0.731926 18.6625 0.668405 18.585 0.600272C18.5468 0.561256 18.5187 0.515732 18.5009 0.463702C18.492 0.412754 18.5024 0.366172 18.5321 0.323956C18.5995 0.2425 18.6752 0.169451 18.7593 0.104809C19.1068 0.0706162 19.4534 0.0356795 19.7989 0Z" fill="white"/>
<path fill-rule="evenodd" clip-rule="evenodd" d="M22.731 0.146098C23.0071 0.201176 23.2831 0.257287 23.5589 0.314428C24.3892 0.695604 25.2192 1.07673 26.049 1.4578C25.8604 1.55145 25.6612 1.60333 25.4514 1.61343C25.3879 1.6164 25.3257 1.60899 25.2646 1.5912C25.1429 1.54074 25.0205 1.49204 24.8973 1.4451C24.7619 1.41385 24.627 1.41597 24.4927 1.45145C24.4218 1.49613 24.3491 1.53848 24.2748 1.57849C24.0785 1.64565 23.8773 1.69012 23.671 1.71189C23.5197 1.73029 23.3682 1.74617 23.2165 1.75953C23.2165 1.71295 23.2165 1.66636 23.2165 1.61978C23.0941 1.59492 22.9738 1.5621 22.8555 1.52132C22.7921 1.49693 22.7392 1.45775 22.6967 1.40381C22.6376 1.317 22.5784 1.23019 22.5193 1.14338C22.5915 0.811257 22.662 0.478832 22.731 0.146098Z" fill="white"/>
<path fill-rule="evenodd" clip-rule="evenodd" d="M16.3564 1.48639C16.5008 1.54163 16.6243 1.62844 16.7268 1.74682C16.8967 1.98143 16.8967 2.21645 16.7268 2.45191C16.6302 2.57184 16.5129 2.66183 16.375 2.72187C16.4192 2.58874 16.4597 2.45429 16.4964 2.31851C16.5363 2.16908 16.5321 2.02087 16.484 1.87387C16.442 1.74432 16.3995 1.61516 16.3564 1.48639Z" fill="white"/>
<path fill-rule="evenodd" clip-rule="evenodd" d="M14.7067 2.33757C15.0343 2.34257 15.2283 2.50984 15.2887 2.83938C15.2983 2.9302 15.3004 3.02124 15.295 3.11252C15.2928 3.14277 15.2876 3.17242 15.2794 3.20145C15.1928 3.08198 15.1046 2.96341 15.0148 2.84574C14.9308 2.74509 14.828 2.67204 14.7067 2.62659C14.568 2.57873 14.429 2.53215 14.2896 2.48684C14.4185 2.40595 14.5575 2.35619 14.7067 2.33757Z" fill="white"/>
<path fill-rule="evenodd" clip-rule="evenodd" d="M27.0264 2.40109C27.1827 2.39638 27.3321 2.42708 27.4746 2.49319C27.6373 2.57087 27.7888 2.66616 27.929 2.77904C28.2144 3.02369 28.4748 3.29366 28.7103 3.58893C29.382 4.45943 29.934 5.40801 30.3662 6.43466C30.4855 6.71956 30.5851 7.01175 30.665 7.31125C30.6987 7.43969 30.7205 7.56883 30.7303 7.69873C29.7747 7.34111 28.7911 7.12939 27.7796 7.06352C26.45 6.99701 25.1676 7.24157 23.9324 7.79719C23.2691 8.10247 22.6403 8.46454 22.0462 8.88339C21.8448 9.02848 21.6456 9.17673 21.4486 9.32804C21.0131 9.68985 20.5794 10.054 20.1475 10.4206C19.9533 10.5742 19.753 10.7193 19.5468 10.8557C19.5377 10.833 19.5346 10.8108 19.5374 10.789C19.5638 10.4018 19.6146 10.0175 19.69 9.63612C20.004 8.03482 20.4065 6.4574 20.8976 4.90381C20.992 4.60126 21.1102 4.30907 21.2525 4.02722C21.3726 3.79684 21.5157 3.58299 21.682 3.38566C22.0984 2.91766 22.5746 2.84461 23.1107 3.16652C23.2282 3.23988 23.3423 3.31822 23.4531 3.40154C23.5607 3.48807 23.6666 3.577 23.7706 3.66833C24.0302 3.90994 24.2916 4.14921 24.5549 4.38612C24.705 4.51242 24.8607 4.631 25.0218 4.74183C25.1726 4.84201 25.3344 4.91823 25.5074 4.97051C25.6424 5.00884 25.7793 5.01943 25.9183 5.00227C25.9267 4.99736 25.9318 4.98995 25.9338 4.98004C25.9596 4.88977 25.9824 4.79872 26.0023 4.7069C26.062 4.40656 26.1201 4.10589 26.1766 3.8049C26.2329 3.49052 26.32 3.18562 26.4381 2.8902C26.4958 2.75502 26.5778 2.63751 26.684 2.53766C26.7867 2.46143 26.9009 2.41591 27.0264 2.40109Z" fill="white"/>
<path fill-rule="evenodd" clip-rule="evenodd" d="M18.6846 2.42015C18.6908 2.41995 18.6949 2.42313 18.697 2.42967C18.765 2.60693 18.7785 2.78796 18.7375 2.97278C18.6635 3.20073 18.5089 3.32883 18.2737 3.35708C18.1189 3.37127 17.9695 3.34904 17.8255 3.29038C17.9508 3.22752 18.0753 3.16295 18.199 3.09664C18.3222 3.02815 18.4186 2.93181 18.4885 2.80762C18.5572 2.68012 18.6226 2.55096 18.6846 2.42015Z" fill="white"/>
<path fill-rule="evenodd" clip-rule="evenodd" d="M16.3564 3.11887C17.0362 3.10711 17.529 3.40777 17.8348 4.02087C18.0077 4.41508 18.0347 4.8195 17.9158 5.23412C17.7602 5.68507 17.4603 5.9868 17.0162 6.13929C16.7563 6.21998 16.4907 6.24963 16.2194 6.22822C16.1418 6.22454 16.065 6.21501 15.9891 6.19964C16.2266 6.05985 16.4549 5.90635 16.6738 5.73911C16.8609 5.59278 17.0196 5.42022 17.1501 5.22142C17.3284 4.91402 17.3429 4.59853 17.1937 4.27495C17.0678 4.01735 16.8779 3.82572 16.624 3.70009C16.3782 3.59167 16.1313 3.59803 15.8832 3.71915C15.6248 3.87891 15.4764 4.11288 15.4381 4.42105C15.425 4.51605 15.4374 4.6071 15.4755 4.69419C15.5154 4.74911 15.5663 4.76288 15.628 4.73548C15.6748 4.71105 15.7163 4.67929 15.7525 4.6402C15.7988 4.58696 15.8414 4.53085 15.8801 4.47187C15.933 4.37658 15.9891 4.28342 16.0482 4.19238C16.1384 4.09688 16.2452 4.07253 16.3688 4.11933C16.6926 4.2031 16.8306 4.41378 16.7828 4.75136C16.6971 5.09496 16.4989 5.34587 16.1883 5.50408C15.933 5.61547 15.6923 5.59006 15.4662 5.42786C15.1768 5.18252 15.0233 4.86704 15.0055 4.4814C15.0256 4.11118 15.1646 3.79675 15.4226 3.53811C15.6821 3.279 15.9934 3.13926 16.3564 3.11887Z" fill="white"/>
<path fill-rule="evenodd" clip-rule="evenodd" d="M14.0219 4.32577C14.2044 4.33261 14.3549 4.40672 14.4732 4.54809C14.5529 4.64804 14.6141 4.7592 14.6569 4.88158C14.6507 4.88582 14.6444 4.88582 14.6382 4.88158C14.4804 4.80161 14.3176 4.73492 14.1495 4.68149C14.0537 4.65903 13.9593 4.65797 13.8663 4.67831C13.7307 4.70324 13.5958 4.73182 13.4616 4.76407C13.4575 4.76195 13.4533 4.75983 13.4492 4.75771C13.5168 4.63042 13.6081 4.52349 13.7231 4.43693C13.8137 4.37262 13.9133 4.33557 14.0219 4.32577Z" fill="white"/>
<path fill-rule="evenodd" clip-rule="evenodd" d="M18.4231 4.48457C18.5535 4.55006 18.6864 4.6104 18.8215 4.66561C18.9509 4.71354 19.0837 4.72624 19.22 4.70372C19.3589 4.67725 19.4959 4.65078 19.6308 4.62432C19.5425 4.78752 19.418 4.9135 19.2573 5.00227C19.0059 5.10039 18.7912 5.0464 18.613 4.84029C18.5254 4.73574 18.4622 4.61717 18.4231 4.48457Z" fill="white"/>
<path fill-rule="evenodd" clip-rule="evenodd" d="M10.5669 10.3348C10.5669 10.3179 10.5669 10.301 10.5669 10.284C10.6151 9.88499 10.6618 9.48481 10.707 9.08349C10.6772 8.64398 10.7207 8.21204 10.8377 7.78766C11.0117 7.18948 11.2213 6.60509 11.4665 6.03448C11.5661 5.84816 11.6657 5.66183 11.7653 5.4755C11.7882 5.44687 11.812 5.41934 11.8369 5.39292C11.935 5.45832 12.0315 5.52608 12.1263 5.59619C12.1639 5.71967 12.2033 5.84248 12.2446 5.96461C12.323 6.17277 12.3977 6.38239 12.4687 6.59347C12.4967 6.68316 12.5029 6.77418 12.4874 6.86661C12.4753 6.90828 12.4566 6.94639 12.4314 6.98094C12.3799 7.03989 12.3228 7.09179 12.2602 7.13657C12.1708 7.19393 12.0816 7.2511 11.9925 7.30808C12.0723 7.45494 12.148 7.60421 12.2197 7.7559C12.271 7.86719 12.2793 7.98152 12.2446 8.09891C12.1886 8.22595 12.1326 8.35299 12.0765 8.48004C12.0384 8.57564 12.0052 8.67308 11.9769 8.77223C11.95 8.93713 11.9427 9.10121 11.9551 9.26452C11.9563 9.35783 11.9469 9.44994 11.9271 9.54084C11.8827 9.67512 11.7945 9.76513 11.6626 9.8108C11.6359 9.82026 11.6089 9.82871 11.5816 9.83621C11.3782 9.85787 11.1748 9.8801 10.9716 9.9029C10.9379 10.009 10.9037 10.1149 10.8688 10.2205C10.8613 10.2304 10.852 10.2378 10.8408 10.2427C10.7446 10.2589 10.6533 10.2896 10.5669 10.3348Z" fill="white"/>
<path fill-rule="evenodd" clip-rule="evenodd" d="M14.8374 5.90744C15.0137 5.90953 15.1776 5.95612 15.3292 6.04719C15.2051 6.08906 15.0805 6.13035 14.9557 6.17105C14.8145 6.21787 14.6973 6.29938 14.604 6.41561C14.5168 6.5342 14.4297 6.65273 14.3425 6.77132C14.2994 6.59302 14.3077 6.41726 14.3674 6.2441C14.4582 6.03607 14.6149 5.92385 14.8374 5.90744Z" fill="white"/>
<path fill-rule="evenodd" clip-rule="evenodd" d="M17.8006 6.11071C17.8792 6.22415 17.9549 6.3406 18.0278 6.46007C18.1151 6.58934 18.2303 6.68354 18.3733 6.74274C18.4978 6.79356 18.6223 6.84437 18.7468 6.89519C18.5629 6.99987 18.3679 7.03163 18.1617 6.99047C17.9656 6.92593 17.8422 6.79152 17.7913 6.58711C17.7608 6.42768 17.7639 6.26889 17.8006 6.11071Z" fill="white"/>
<path fill-rule="evenodd" clip-rule="evenodd" d="M16.5182 6.55535C16.5216 6.55573 16.5237 6.55783 16.5244 6.56171C16.473 6.68214 16.4222 6.80283 16.3719 6.92377C16.3151 7.06079 16.2985 7.20263 16.3221 7.34936C16.3513 7.498 16.3804 7.6462 16.4093 7.79401C16.2453 7.70298 16.1188 7.57378 16.0295 7.40653C15.942 7.18256 15.9772 6.98139 16.1354 6.80308C16.2461 6.69319 16.3738 6.61062 16.5182 6.55535Z" fill="white"/>
<path fill-rule="evenodd" clip-rule="evenodd" d="M31.1412 10.1125C31.1412 10.1994 31.1412 10.2861 31.1412 10.373C31.0676 10.9247 30.7957 11.3408 30.3257 11.6211C29.914 11.8384 29.4928 11.8616 29.062 11.691C28.9262 11.6344 28.7934 11.5709 28.6636 11.5005C28.4306 11.3667 28.194 11.2397 27.9539 11.1193C27.3496 10.8308 26.7147 10.6761 26.049 10.6556C25.0258 10.6415 24.0256 10.7897 23.0485 11.1003C22.6137 11.2439 22.179 11.3932 21.7443 11.5481C21.5913 11.593 21.4367 11.6385 21.2805 11.6847C21.1624 11.7168 21.0431 11.7433 20.9225 11.7641C20.9153 11.762 20.908 11.7598 20.9008 11.7577C20.8817 11.6938 20.8652 11.6293 20.851 11.564C20.8673 11.541 20.8859 11.5198 20.907 11.5005C21.4422 11.0199 22.0191 10.5985 22.6376 10.2364C23.9175 9.477 25.2788 8.92011 26.7213 8.56579C27.3517 8.41467 27.9815 8.33737 28.6107 8.33394C28.9656 8.33858 29.3153 8.38622 29.6596 8.47686C30.0567 8.58142 30.3981 8.78151 30.6837 9.07713C30.9425 9.37269 31.095 9.71787 31.1412 10.1125Z" fill="white"/>
<path fill-rule="evenodd" clip-rule="evenodd" d="M15.8895 8.81035C17.0925 8.76182 17.9692 9.27843 18.5196 10.3603C18.7991 10.8786 18.9527 11.4334 18.9803 12.0245C18.9901 13.0577 18.6259 13.9247 17.8878 14.6257C17.1757 15.267 16.3416 15.592 15.3852 15.6007C14.6801 15.5913 14.016 15.4187 13.3932 15.083C12.8667 14.799 12.3987 14.4359 11.9894 13.9936C11.6744 13.6597 11.3922 13.2997 11.1428 12.9138C10.9874 12.6708 10.867 12.4103 10.7817 12.1325C10.7488 12.0161 10.7322 11.8975 10.7319 11.7768C10.804 12.0086 10.9119 12.2203 11.0556 12.412C11.242 12.6657 11.4547 12.8955 11.6937 13.1012C12.2733 13.6055 12.9352 13.9548 13.6795 14.1493C14.8404 14.418 15.8966 14.1915 16.8482 13.4696C17.277 13.089 17.5333 12.6095 17.617 12.0309C17.6947 11.48 17.5805 10.976 17.2746 10.5191C17.0424 10.1935 16.7384 9.96801 16.3626 9.84256C16.0155 9.73769 15.6815 9.76945 15.3603 9.93784C15.0595 10.1246 14.8779 10.3967 14.8156 10.7541C14.7675 11.0805 14.7945 11.4024 14.8966 11.7196C14.9259 11.6876 14.9529 11.6537 14.9775 11.618C15.0709 11.4676 15.1642 11.3173 15.2576 11.167C15.541 10.7541 15.9052 10.662 16.3501 10.8907C16.5572 11.0218 16.6807 11.2113 16.7205 11.4592C16.7636 11.9795 16.5925 12.4104 16.207 12.7518C15.9285 12.9623 15.6152 13.0575 15.267 13.0377C14.651 12.9865 14.1436 12.7229 13.7449 12.2468C13.478 11.881 13.3359 11.4691 13.3185 11.0113C13.3338 10.5493 13.4904 10.1459 13.7885 9.80127C14.1418 9.41068 14.5682 9.13437 15.0677 8.97232C15.3362 8.88511 15.6102 8.83112 15.8895 8.81035Z" fill="white"/>
<path fill-rule="evenodd" clip-rule="evenodd" d="M25.2771 11.9737C25.9667 11.9659 26.6286 12.1237 27.2629 12.4469C27.9639 12.8192 28.4941 13.3644 28.8534 14.0826C29.2441 14.9319 29.2774 15.7958 28.9531 16.6742C28.816 17.0177 28.6375 17.3354 28.4177 17.627C28.3015 17.7583 28.1739 17.8758 28.0348 17.9796C27.4933 18.3712 26.8977 18.6443 26.2482 18.799C26.029 18.8471 25.8131 18.8598 25.6008 18.8371C25.442 18.8196 25.3009 18.7603 25.1775 18.6593C25.103 18.5863 25.0469 18.5006 25.0094 18.402C25.5947 18.2441 25.9816 17.8715 26.1704 17.284C26.3533 16.5983 26.2703 15.9482 25.9214 15.3339C25.4929 14.654 24.888 14.3756 24.1067 14.4986C23.7566 14.5726 23.4287 14.7038 23.1232 14.8925C22.7594 15.1176 22.4263 15.3833 22.124 15.6897C21.6728 16.2328 21.1655 16.7102 20.6019 17.1221C18.9975 18.2664 17.242 18.6072 15.3354 18.1447C14.2964 17.871 13.3834 17.3692 12.5963 16.6393C12.3168 16.371 12.0792 16.0693 11.8836 15.7341C11.7636 15.5253 11.6764 15.3029 11.6221 15.0672C11.6159 15.0462 11.6138 15.025 11.6159 15.0036C12.1909 15.5348 12.8332 15.9657 13.5426 16.2963C14.1466 16.5737 14.7795 16.7325 15.4413 16.7727C16.2025 16.8053 16.9309 16.6635 17.6263 16.3471C17.9511 16.1962 18.2624 16.0226 18.5601 15.8262C19.0898 15.4657 19.6003 15.0782 20.0915 14.6638C20.6223 14.2068 21.1639 13.7643 21.7163 13.3362C22.0646 13.0737 22.4299 12.8366 22.8119 12.6248C23.397 12.3198 24.0154 12.1187 24.667 12.0213C24.8706 11.9948 25.0739 11.979 25.2771 11.9737Z" fill="white"/>
<path fill-rule="evenodd" clip-rule="evenodd" d="M21.4548 21C21.2078 21 20.961 21 20.714 21C20.7119 20.9916 20.7098 20.9916 20.7078 21C20.7057 21 20.7036 21 20.7015 21C20.4044 20.9997 20.1097 20.9669 19.8176 20.9015C18.7638 20.6765 17.7263 20.3906 16.705 20.044C16.4671 19.9624 16.2347 19.8671 16.0077 19.7582C15.9652 19.7333 15.9237 19.7068 15.8832 19.6788C16.5584 19.7599 17.2349 19.7631 17.9127 19.6883C18.5171 19.6166 19.1147 19.5064 19.7055 19.358C19.9574 19.2953 20.2085 19.2297 20.4588 19.1611C21.0004 19.0065 21.542 18.8519 22.0835 18.6974C22.5569 18.5618 23.0362 18.4538 23.5216 18.3734C23.6766 18.3508 23.8322 18.3349 23.9885 18.3258C24.0588 18.6352 24.0868 18.9485 24.0725 19.2659C24.0254 19.9436 23.6986 20.419 23.092 20.6919C22.808 20.812 22.5133 20.8925 22.208 20.9333C21.957 20.9672 21.7059 20.9894 21.4548 21Z" fill="white"/>
<path d="M44.6462 4.72818V15.7532H42.5322V8.60268L39.4923 13.7214H39.2454L36.2056 8.61843V15.7532H34.0762V4.72818H36.2673L39.3689 9.94143L42.455 4.72818H44.6462Z" fill="white"/>
<path d="M48.7883 13.6742H53.3403V15.7532H46.6588V4.72818H53.2632V6.80718H48.7883V9.15393H52.8774V11.2014H48.7883V13.6742Z" fill="white"/>
<path d="M61.9857 4.72818V6.80718H59.0693V15.7532H56.9399V6.80718H54.0389V4.72818H61.9857Z" fill="white"/>
<path d="M69.3347 15.7532L68.6866 13.7687H64.3815L63.7334 15.7532H61.4342L65.2147 4.72818H67.8534L71.6493 15.7532H69.3347ZM65.0604 11.7369H68.0231L66.5418 7.23243L65.0604 11.7369Z" fill="white"/>
<path d="M80.6141 4.50768C82.2395 4.50768 83.5819 5.05893 84.6415 6.16143C85.7011 7.25343 86.2309 8.61318 86.2309 10.2407C86.2309 11.8577 85.7011 13.2174 84.6415 14.3199C83.5819 15.4224 82.2395 15.9737 80.6141 15.9737C79.6368 15.9737 78.7367 15.7427 77.9137 15.2807C77.0908 14.8082 76.4478 14.1729 75.9849 13.3749L77.8211 12.2882C78.0783 12.7712 78.4538 13.1544 78.9476 13.4379C79.4517 13.7109 80.0072 13.8474 80.6141 13.8474C81.4885 13.8474 82.224 13.6164 82.8207 13.1544C83.4174 12.6819 83.8083 12.0467 83.9934 11.2487H79.179V9.21693H83.9934C83.8083 8.41893 83.4174 7.78893 82.8207 7.32693C82.224 6.85443 81.4885 6.61818 80.6141 6.61818C80.0072 6.61818 79.4568 6.75993 78.963 7.04343C78.4692 7.31643 78.0886 7.69968 77.8211 8.19318L75.9849 7.10643C76.4478 6.30843 77.0908 5.67843 77.9137 5.21643C78.747 4.74393 79.6471 4.50768 80.6141 4.50768Z" fill="white"/>
<path d="M96.1626 15.7532H93.7091L89.8514 10.5872V15.7532H87.722V4.72818H89.8514V9.59493L93.5548 4.72818H96.0083L92.0117 10.0832L96.1626 15.7532Z" fill="white"/>
<path d="M101.419 15.9737C99.7939 15.9737 98.4514 15.4224 97.3919 14.3199C96.3323 13.2174 95.8025 11.8577 95.8025 10.2407C95.8025 8.61318 96.3323 7.25343 97.3919 6.16143C98.4514 5.05893 99.7939 4.50768 101.419 4.50768C102.397 4.50768 103.297 4.74393 104.12 5.21643C104.953 5.67843 105.601 6.30843 106.064 7.10643L104.228 8.19318C103.96 7.69968 103.58 7.31643 103.086 7.04343C102.592 6.75993 102.037 6.61818 101.419 6.61818C100.37 6.61818 99.5213 6.95418 98.8732 7.62618C98.2354 8.29818 97.9165 9.16968 97.9165 10.2407C97.9165 11.3012 98.2354 12.1674 98.8732 12.8394C99.5213 13.5114 100.37 13.8474 101.419 13.8474C102.037 13.8474 102.592 13.7109 103.086 13.4379C103.59 13.1544 103.97 12.7712 104.228 12.2882L106.064 13.3749C105.601 14.1729 104.958 14.8082 104.135 15.2807C103.312 15.7427 102.407 15.9737 101.419 15.9737Z" fill="white"/>
<path d="M115.442 4.72818V15.7532H113.313V6.80718H109.501V15.7532H107.372V4.72818H115.442Z" fill="white"/>
<path d="M121.481 4.72818C122.52 4.72818 123.394 5.08518 124.104 5.79918C124.814 6.51318 125.169 7.38993 125.169 8.42943C125.169 9.46893 124.814 10.3457 124.104 11.0597C123.394 11.7737 122.52 12.1307 121.481 12.1307H119.583V15.7532H117.453V4.72818H121.481ZM121.481 10.0989C121.933 10.0989 122.309 9.94143 122.607 9.62643C122.905 9.30093 123.055 8.90193 123.055 8.42943C123.055 7.94643 122.905 7.54743 122.607 7.23243C122.309 6.91743 121.933 6.75993 121.481 6.75993H119.583V10.0989H121.481Z" fill="white"/>
<path d="M128.684 13.6742H133.236V15.7532H126.555V4.72818H133.159V6.80718H128.684V9.15393H132.774V11.2014H128.684V13.6742Z" fill="white"/>
<path d="M139.785 15.9737C138.16 15.9737 136.817 15.4224 135.758 14.3199C134.698 13.2174 134.168 11.8577 134.168 10.2407C134.168 8.61318 134.698 7.25343 135.758 6.16143C136.817 5.05893 138.16 4.50768 139.785 4.50768C140.762 4.50768 141.663 4.74393 142.485 5.21643C143.319 5.67843 143.967 6.30843 144.43 7.10643L142.593 8.19318C142.326 7.69968 141.945 7.31643 141.452 7.04343C140.958 6.75993 140.402 6.61818 139.785 6.61818C138.736 6.61818 137.887 6.95418 137.239 7.62618C136.601 8.29818 136.282 9.16968 136.282 10.2407C136.282 11.3012 136.601 12.1674 137.239 12.8394C137.887 13.5114 138.736 13.8474 139.785 13.8474C140.402 13.8474 140.958 13.7109 141.452 13.4379C141.956 13.1544 142.336 12.7712 142.593 12.2882L144.43 13.3749C143.967 14.1729 143.324 14.8082 142.501 15.2807C141.678 15.7427 140.773 15.9737 139.785 15.9737Z" fill="white"/>
<path d="M150.755 15.9737C149.13 15.9737 147.788 15.4224 146.728 14.3199C145.668 13.2174 145.139 11.8577 145.139 10.2407C145.139 8.61318 145.668 7.25343 146.728 6.16143C147.788 5.05893 149.13 4.50768 150.755 4.50768C151.733 4.50768 152.633 4.74393 153.456 5.21643C154.289 5.67843 154.937 6.30843 155.4 7.10643L153.564 8.19318C153.296 7.69968 152.916 7.31643 152.422 7.04343C151.928 6.75993 151.373 6.61818 150.755 6.61818C149.706 6.61818 148.857 6.95418 148.209 7.62618C147.572 8.29818 147.253 9.16968 147.253 10.2407C147.253 11.3012 147.572 12.1674 148.209 12.8394C148.857 13.5114 149.706 13.8474 150.755 13.8474C151.373 13.8474 151.928 13.7109 152.422 13.4379C152.926 13.1544 153.307 12.7712 153.564 12.2882L155.4 13.3749C154.937 14.1729 154.294 14.8082 153.471 15.2807C152.648 15.7427 151.743 15.9737 150.755 15.9737Z" fill="white"/>
<path d="M8.4406 15.7532H5.98712L2.12944 10.5872V15.7532H0V4.72818H2.12944V9.59493L5.83281 4.72818H8.28629L4.28974 10.0832L8.4406 15.7532Z" fill="white"/>
</svg>
